<?xml version="1.0" encoding="utf-8"?>
<!-- Generator: Adobe Illustrator 21.0.0, SVG Export Plug-In . SVG Version: 6.00 Build 0)  -->
<svg version="1.1" id="Layer_1" xmlns="http://www.w3.org/2000/svg" xmlns:xlink="http://www.w3.org/1999/xlink" x="0px" y="0px"
	 viewBox="0 0 180 180" style="enable-background:new 0 0 180 180;" xml:space="preserve">
<style type="text/css">
	.st0{fill:#409EFF;}
</style>
<path class="st0" d="M90,0C40.3,0,0,40.3,0,90s40.3,90,90,90s90-40.3,90-90S139.7,0,90,0z M151.6,68h-21.1c-1.3,0-2.4,1-2.4,2.3
	v59.1c0,1.3-1.1,2.3-2.4,2.3h-6.1c-1.3,0-2.4-1-2.4-2.3V70.3c0-1.3-1.1-2.3-2.4-2.3H93.9c-1.3,0-2.4,1-2.4,2.3v36.1
	c0,4.5-0.7,8.4-2,11.7c-1.4,3.3-3.3,6-5.8,8.2c-2.5,2.2-5.4,3.8-8.9,4.8c-3.4,1-7.2,1.6-11.4,1.6c-9.9,0-17.4-2-22.6-6.1
	c-5.2-4.1-7.8-10.1-7.8-18.1V61.8c0-1.3,1.1-2.3,2.4-2.3h6.1c1.3,0,2.4,1,2.4,2.3v42.8c0,7.1,1.6,12,4.9,14.8
	c3.3,2.8,8.1,4.2,14.5,4.2c6.2,0,10.7-1.5,13.5-4.6c2.9-3.1,4.3-7.9,4.3-14.7V61.8c0-1.3,1.1-2.3,2.4-2.3h68c1.3,0,2.4,1,2.4,2.3
	v3.9C154,67,152.9,68,151.6,68z"/>
</svg>
