<?xml version="1.0" encoding="utf-8"?>
<!-- Generator: Adobe Illustrator 21.0.0, SVG Export Plug-In . SVG Version: 6.00 Build 0)  -->
<svg version="1.1" id="Layer_1" xmlns="http://www.w3.org/2000/svg" xmlns:xlink="http://www.w3.org/1999/xlink" x="0px" y="0px"
	 viewBox="0 0 141.7 141.7" style="enable-background:new 0 0 141.7 141.7;" xml:space="preserve">
<style type="text/css">
	.st0{opacity:0.27;fill:#E9E9E9;}
	.st1{fill:#D8D8D8;}
</style>
<path class="st0" d="M111.7,30.7l0.7,45.1c0,1.4-1.5,2.3-2.7,1.7l-28-15.3c-0.6-0.3-1-1-1-1.7l0.7-50.2c0-0.7-0.3-1.3-0.9-1.6
	l-13-7.5c-0.6-0.3-1.3-0.3-1.9,0L5.9,35.7C5.3,36,5,36.6,5,37.3v13.3c0,1.5,1.6,2.4,2.8,1.6l21.6-13.7c1.2-0.8,2.8,0.1,2.8,1.6
	l0.1,48.4c0,1.4,1.5,2.3,2.8,1.6l8.8-5c0.6-0.3,0.9-0.9,0.9-1.6L45,29.6c0-0.6,0.3-1.2,0.9-1.6l17.8-11.3c1.2-0.8,2.8,0.1,2.8,1.6
	v52.4c0,0.7,0.4,1.3,0.9,1.6l57.9,33.4c1.2,0.7,2.8-0.2,2.8-1.6V37.3c0-0.7-0.4-1.3-1-1.6L114.4,29
	C113.2,28.4,111.7,29.3,111.7,30.7z"/>
<g>
	<path class="st1" d="M106.2,66.1l5.3-3.4c1.9-1.2,4.3,0.2,4.3,2.4v2.4c0,2.8,3.7,3.9,5.2,1.5l15.3-25c0.9-1.4,0.4-3.2-1.1-4
		l-15.3-8c-1.9-1-4.1,0.4-4.1,2.5v6.2c0,1-0.5,1.9-1.4,2.4L66.6,70.7h0l-14.3-8.2c-1.9-1.1-4.2,0.3-4.2,2.4v40.9
		c0,2.1-2.3,3.5-4.2,2.5l-21.6-12c-0.9-0.5-1.5-1.4-1.4-2.5L21.1,46c0-1-0.5-1.9-1.4-2.5l-10.5-6C7.3,36.5,5,37.8,5,40l0,64.6
		c0,1,0.5,1.9,1.4,2.4l56,32.3c1.9,1.1,4.2-0.3,4.2-2.4V92.9c0-1,0.5-1.9,1.3-2.4l16.3-10.4c1.9-1.2,4.3,0.2,4.3,2.4v38.8
		c0,2.3,2.5,3.6,4.4,2.3l11.1-7.5c0.8-0.5,1.2-1.4,1.2-2.4l-0.3-45.3C104.9,67.5,105.4,66.6,106.2,66.1z"/>
</g>
</svg>
